<svg xmlns="http://www.w3.org/2000/svg" width="30" height="30" viewBox="0 0 30 30">
  <g id="Grupo_130" data-name="Grupo 130" transform="translate(-1228 -863)">
    <g id="Grupo_129" data-name="Grupo 129" transform="translate(1212 275)">
      <circle id="Elipse_4" data-name="Elipse 4" cx="15" cy="15" r="15" transform="translate(16 588)" fill="#06b552"/>
    </g>
    <g id="horario-icon" transform="translate(1231 866)">
      <path id="Caminho_40" data-name="Caminho 40" d="M0,0H24V24H0Z" fill="none"/>
      <path id="Caminho_41" data-name="Caminho 41" d="M13,3a9,9,0,0,0-9,9H1l3.89,3.89.07.14L9,12H6a7.034,7.034,0,1,1,2.06,4.94L6.64,18.36A9,9,0,1,0,13,3ZM12,8v5l4.28,2.54L17,14.33l-3.5-2.08V8Z" fill="#212121"/>
    </g>
  </g>
</svg>
