<svg xmlns="http://www.w3.org/2000/svg" width="20" height="20" viewBox="0 0 20 20">
  <g id="Grupo_99" data-name="Grupo 99" transform="translate(-556 -385)">
    <circle id="Elipse_6" data-name="Elipse 6" cx="10" cy="10" r="10" transform="translate(556 385)" fill="#676565"/>
    <g id="recycle_2_" data-name="recycle (2)" transform="translate(560.357 389.28)">
      <path id="Caminho_31" data-name="Caminho 31" d="M5.785.664a5.161,5.161,0,0,1,2.65.751A5.736,5.736,0,0,1,9.817,2.579L8.449,2.533a.291.291,0,1,0-.019.582l1.892.062a.291.291,0,0,0,.38-.38L10.64.905a.291.291,0,0,0-.582.013s0,0,0,.006l.036,1.091a6.349,6.349,0,0,0-1.36-1.1A5.744,5.744,0,0,0,5.785.082,5.629,5.629,0,0,0,1.554,1.974,6.008,6.008,0,0,0,0,5.866a.291.291,0,0,0,.582,0,5.411,5.411,0,0,1,1.4-3.5,5.054,5.054,0,0,1,3.8-1.7Zm0,0" fill="#fff" stroke="#fff" stroke-width="0.25"/>
      <path id="Caminho_32" data-name="Caminho 32" d="M49.87,236.012a.291.291,0,0,0-.291.291,5.412,5.412,0,0,1-1.4,3.5,5.054,5.054,0,0,1-3.8,1.7,5.16,5.16,0,0,1-2.65-.751,5.741,5.741,0,0,1-1.382-1.164l1.368.045a.291.291,0,0,0,.019-.582l-1.892-.062a.291.291,0,0,0-.38.38l.062,1.892a.291.291,0,0,0,.582-.013s0,0,0-.006l-.036-1.091a6.351,6.351,0,0,0,1.36,1.1,5.743,5.743,0,0,0,2.949.834,5.629,5.629,0,0,0,4.231-1.892,6.009,6.009,0,0,0,1.554-3.892.291.291,0,0,0-.291-.291Zm0,0" transform="translate(-38.518 -230.437)" fill="#fff" stroke="#fff" stroke-width="0.25"/>
    </g>
  </g>
</svg>
